<svg xmlns="http://www.w3.org/2000/svg" viewBox="0 0 841.9 595.3" role="img" aria-label="React logo">
  <g fill="#61DAFB">
    <path d="M666.3 296.5c0 60.3-48.9 109.3-109.3 109.3s-109.3-49-109.3-109.3 48.9-109.3 109.3-109.3 109.3 48.9 109.3 109.3z"/>
    <path d="M520.5 78.1c33.7 0 66.9 5.4 96.9 16.1 51.2 18.6 98.1 52.9 135.5 99.3 38.3 47.7 62.9 104.5 69.3 159.4 3.9 33.6 3.1 67.1-2.4 98.5-7.1 40-22.4 76.5-44.1 105.9-21.2 28.5-48.4 51.3-79.3 66.3-39.7 19.3-83.6 28.8-129.7 28.8-33.7 0-66.9-5.4-96.9-16.1-51.2-18.6-98.1-52.9-135.5-99.3-38.3-47.7-62.9-104.5-69.3-159.4-3.9-33.6-3.1-67.1 2.4-98.5 7.1-40 22.4-76.5 44.1-105.9 21.2-28.5 48.4-51.3 79.3-66.3 39.7-19.3 83.6-28.8 129.7-28.8z" opacity="0.15"/>
  </g>
</svg>
